<svg xmlns="http://www.w3.org/2000/svg" viewBox="0 0 217 34" width="217" height="34" role="img" aria-labelledby="title"><title id="title">Inixindo Bandung</title><g id="mark" transform="translate(7.940 1.404) scale(0.05955)"><polygon points="96,13 296,213 96,410 15,329 131,213 15,97" fill="#143564" stroke="#143564" stroke-width="3" stroke-linejoin="round"/><polygon points="309.5,24.5 389.5,104.5 309.5,184.5 229.5,104.5" fill="#EA2339" stroke="#EA2339" stroke-width="3" stroke-linejoin="round"/><polygon points="309.5,238.5 389.5,318.5 309.5,398.5 229.5,318.5" fill="#5CAAD5" stroke="#5CAAD5" stroke-width="3" stroke-linejoin="round"/></g><polygon id="ribbon" points="44,0 175,0 216,34 44,34" fill="#005081"/><path id="wordmark" fill="#FFFFFF" d="M53 17.94V9H55.07V17.94ZM57.05 17.94V11.07H58.95V12.98L58.6 12.4Q58.97 11.7 59.66 11.34Q60.34 10.97 61.22 10.97Q62.04 10.97 62.69 11.3Q63.33 11.62 63.7 12.29Q64.08 12.96 64.08 14.01V17.94H62.08V14.31Q62.08 13.48 61.72 13.09Q61.35 12.69 60.7 12.69Q60.22 12.69 59.84 12.89Q59.47 13.09 59.26 13.5Q59.05 13.9 59.05 14.54V17.94ZM65.88 17.94V11.07H67.88V17.94ZM66.88 10.12Q66.33 10.12 65.98 9.79Q65.64 9.47 65.64 9Q65.64 8.53 65.98 8.21Q66.33 7.89 66.88 7.89Q67.43 7.89 67.78 8.19Q68.12 8.49 68.12 8.96Q68.12 9.46 67.78 9.79Q67.44 10.12 66.88 10.12ZM68.85 17.94 71.94 13.91 71.9 15.01 68.95 11.07H71.18L73.05 13.64L72.21 13.66L74.13 11.07H76.26L73.28 14.97L73.29 13.89L76.36 17.94H74.09L72.14 15.22L72.97 15.33L71.03 17.94ZM77.33 17.94V11.07H79.32V17.94ZM78.33 10.12Q77.77 10.12 77.43 9.79Q77.08 9.47 77.08 9Q77.08 8.53 77.43 8.21Q77.77 7.89 78.33 7.89Q78.88 7.89 79.23 8.19Q79.57 8.49 79.57 8.96Q79.57 9.46 79.23 9.79Q78.89 10.12 78.33 10.12ZM81.18 17.94V11.07H83.07V12.98L82.72 12.4Q83.09 11.7 83.78 11.34Q84.46 10.97 85.34 10.97Q86.16 10.97 86.81 11.3Q87.45 11.62 87.83 12.29Q88.2 12.96 88.2 14.01V17.94H86.2V14.31Q86.2 13.48 85.84 13.09Q85.48 12.69 84.82 12.69Q84.34 12.69 83.96 12.89Q83.59 13.09 83.38 13.5Q83.17 13.9 83.17 14.54V17.94ZM93 18.04Q92.04 18.04 91.26 17.6Q90.47 17.17 90.02 16.37Q89.57 15.58 89.57 14.5Q89.57 13.43 90.02 12.63Q90.47 11.84 91.26 11.41Q92.04 10.97 93 10.97Q93.87 10.97 94.52 11.36Q95.17 11.74 95.53 12.52Q95.89 13.3 95.89 14.5Q95.89 15.71 95.55 16.5Q95.2 17.28 94.55 17.66Q93.91 18.04 93 18.04ZM93.34 16.41Q93.84 16.41 94.23 16.18Q94.63 15.96 94.86 15.52Q95.09 15.09 95.09 14.5Q95.09 13.91 94.86 13.48Q94.63 13.06 94.23 12.83Q93.84 12.61 93.34 12.61Q92.84 12.61 92.45 12.83Q92.06 13.06 91.82 13.48Q91.59 13.91 91.59 14.5Q91.59 15.09 91.82 15.52Q92.06 15.96 92.45 16.18Q92.84 16.41 93.34 16.41ZM95.15 17.94V16.54L95.19 14.5L95.06 12.46V8.46H97.05V17.94ZM102.16 18.04Q101.06 18.04 100.21 17.59Q99.36 17.13 98.88 16.33Q98.39 15.53 98.39 14.5Q98.39 13.47 98.88 12.67Q99.37 11.88 100.21 11.43Q101.06 10.97 102.16 10.97Q103.25 10.97 104.1 11.42Q104.96 11.88 105.44 12.67Q105.93 13.46 105.93 14.5Q105.93 15.53 105.44 16.33Q104.96 17.13 104.1 17.59Q103.25 18.04 102.16 18.04ZM102.16 16.41Q102.66 16.41 103.05 16.18Q103.45 15.96 103.68 15.52Q103.91 15.09 103.91 14.5Q103.91 13.91 103.68 13.48Q103.45 13.06 103.05 12.83Q102.66 12.61 102.16 12.61Q101.66 12.61 101.26 12.83Q100.87 13.06 100.64 13.48Q100.4 13.91 100.4 14.5Q100.4 15.09 100.64 15.52Q100.87 15.96 101.26 16.18Q101.66 16.41 102.16 16.41ZM111.01 17.94V9H115.38Q117.07 9 117.92 9.64Q118.78 10.28 118.78 11.33Q118.78 12.03 118.43 12.55Q118.08 13.06 117.48 13.34Q116.88 13.63 116.1 13.63L116.34 13.1Q117.19 13.1 117.83 13.38Q118.48 13.66 118.85 14.19Q119.22 14.73 119.22 15.5Q119.22 16.66 118.31 17.3Q117.41 17.94 115.64 17.94ZM113.07 16.39H115.49Q116.29 16.39 116.71 16.12Q117.13 15.86 117.13 15.29Q117.13 14.72 116.71 14.45Q116.29 14.18 115.49 14.18H112.92V12.67H115.13Q115.89 12.67 116.29 12.4Q116.68 12.14 116.68 11.61Q116.68 11.08 116.29 10.82Q115.89 10.55 115.13 10.55H113.07ZM124.86 17.94V16.6L124.74 16.3V13.91Q124.74 13.26 124.35 12.91Q123.96 12.56 123.15 12.56Q122.61 12.56 122.07 12.73Q121.54 12.9 121.17 13.19L120.45 11.8Q121.02 11.4 121.81 11.19Q122.6 10.97 123.42 10.97Q125 10.97 125.86 11.71Q126.73 12.45 126.73 14.02V17.94ZM122.77 18.04Q121.97 18.04 121.39 17.77Q120.82 17.5 120.51 17.03Q120.21 16.55 120.21 15.96Q120.21 15.35 120.51 14.89Q120.8 14.43 121.46 14.17Q122.11 13.91 123.15 13.91H124.97V15.07H123.38Q122.67 15.07 122.41 15.3Q122.15 15.52 122.15 15.88Q122.15 16.25 122.44 16.48Q122.74 16.7 123.26 16.7Q123.76 16.7 124.16 16.47Q124.56 16.24 124.74 15.77L125.04 16.69Q124.83 17.35 124.25 17.7Q123.68 18.04 122.77 18.04ZM128.53 17.94V11.07H130.43V12.98L130.08 12.4Q130.45 11.7 131.14 11.34Q131.82 10.97 132.7 10.97Q133.52 10.97 134.17 11.3Q134.81 11.62 135.18 12.29Q135.56 12.96 135.56 14.01V17.94H133.56V14.31Q133.56 13.48 133.2 13.09Q132.83 12.69 132.18 12.69Q131.7 12.69 131.32 12.89Q130.95 13.09 130.74 13.5Q130.53 13.9 130.53 14.54V17.94ZM140.36 18.04Q139.4 18.04 138.62 17.6Q137.83 17.17 137.38 16.37Q136.93 15.58 136.93 14.5Q136.93 13.43 137.38 12.63Q137.83 11.84 138.62 11.41Q139.4 10.97 140.36 10.97Q141.23 10.97 141.88 11.36Q142.53 11.74 142.89 12.52Q143.25 13.3 143.25 14.5Q143.25 15.71 142.91 16.5Q142.56 17.28 141.91 17.66Q141.27 18.04 140.36 18.04ZM140.7 16.41Q141.2 16.41 141.59 16.18Q141.99 15.96 142.22 15.52Q142.45 15.09 142.45 14.5Q142.45 13.91 142.22 13.48Q141.99 13.06 141.59 12.83Q141.2 12.61 140.7 12.61Q140.2 12.61 139.81 12.83Q139.41 13.06 139.18 13.48Q138.95 13.91 138.95 14.5Q138.95 15.09 139.18 15.52Q139.41 15.96 139.81 16.18Q140.2 16.41 140.7 16.41ZM142.51 17.94V16.54L142.55 14.5L142.42 12.46V8.46H144.41V17.94ZM149.15 18.04Q148.29 18.04 147.62 17.71Q146.96 17.39 146.58 16.7Q146.21 16.01 146.21 14.95V11.07H148.2V14.65Q148.2 15.52 148.57 15.92Q148.93 16.32 149.59 16.32Q150.06 16.32 150.41 16.12Q150.77 15.92 150.98 15.51Q151.18 15.1 151.18 14.47V11.07H153.18V17.94H151.28V16.05L151.64 16.6Q151.28 17.31 150.61 17.68Q149.94 18.04 149.15 18.04ZM155.03 17.94V11.07H156.93V12.98L156.57 12.4Q156.94 11.7 157.63 11.34Q158.32 10.97 159.2 10.97Q160.02 10.97 160.66 11.3Q161.31 11.62 161.68 12.29Q162.05 12.96 162.05 14.01V17.94H160.06V14.31Q160.06 13.48 159.7 13.09Q159.33 12.69 158.67 12.69Q158.19 12.69 157.82 12.89Q157.44 13.09 157.23 13.5Q157.02 13.9 157.02 14.54V17.94ZM167.14 20.52Q166.17 20.52 165.27 20.28Q164.37 20.05 163.76 19.58L164.56 18.14Q164.99 18.5 165.66 18.71Q166.33 18.93 166.99 18.93Q168.05 18.93 168.53 18.45Q169.01 17.98 169.01 17.05V16.02L169.13 14.29L169.1 12.55V11.07H171V16.8Q171 18.71 170 19.61Q169 20.52 167.14 20.52ZM166.83 17.61Q165.88 17.61 165.1 17.2Q164.32 16.78 163.86 16.04Q163.4 15.29 163.4 14.29Q163.4 13.28 163.86 12.54Q164.32 11.79 165.1 11.38Q165.88 10.97 166.83 10.97Q167.71 10.97 168.37 11.32Q169.02 11.67 169.4 12.41Q169.77 13.15 169.77 14.29Q169.77 15.43 169.4 16.17Q169.02 16.9 168.37 17.26Q167.71 17.61 166.83 17.61ZM167.23 15.98Q167.76 15.98 168.16 15.77Q168.57 15.55 168.8 15.17Q169.03 14.79 169.03 14.29Q169.03 13.78 168.8 13.4Q168.57 13.02 168.16 12.81Q167.76 12.61 167.23 12.61Q166.71 12.61 166.3 12.81Q165.88 13.02 165.65 13.4Q165.42 13.78 165.42 14.29Q165.42 14.79 165.65 15.17Q165.88 15.55 166.3 15.77Q166.71 15.98 167.23 15.98Z"/></svg>
